<svg width="100" height="112" viewBox="0 0 100 112" fill="none" xmlns="http://www.w3.org/2000/svg">
<circle cx="50" cy="62" r="50" fill="#3D957D"/>
<path d="M27.9 78.45C32.1 77.65 35.4 75.75 37.8 72.75C40.2 69.75 41.45 66.2 41.55 62.1C40.95 62.3 40.35 62.5 39.75 62.7C39.15 62.8 38.5 62.85 37.8 62.85C35 62.85 32.75 61.95 31.05 60.15C29.45 58.25 28.65 56.05 28.65 53.55C28.65 50.55 29.5 48.15 31.2 46.35C33 44.45 35.35 43.5 38.25 43.5C41.15 43.5 43.55 44.55 45.45 46.65C47.45 48.75 48.45 51.85 48.45 55.95C48.45 61.65 47.6 66.5 45.9 70.5C44.2 74.4 41.8 77.45 38.7 79.65C35.6 81.75 32 83.05 27.9 83.55V78.45ZM54.15 78.45C58.25 77.65 61.5 75.75 63.9 72.75C66.3 69.75 67.55 66.2 67.65 62.1C67.15 62.3 66.55 62.5 65.85 62.7C65.25 62.8 64.6 62.85 63.9 62.85C61.1 62.85 58.9 61.95 57.3 60.15C55.7 58.25 54.9 56.05 54.9 53.55C54.9 50.55 55.75 48.15 57.45 46.35C59.25 44.45 61.6 43.5 64.5 43.5C67.4 43.5 69.8 44.55 71.7 46.65C73.7 48.75 74.7 51.85 74.7 55.95C74.7 61.65 73.85 66.5 72.15 70.5C70.45 74.4 68.05 77.45 64.95 79.65C61.85 81.75 58.25 83.05 54.15 83.55V78.45Z" fill="white"/>
</svg>
