<?xml version="1.0" encoding="UTF-8"?>
<!-- Generator: Adobe Illustrator 22.1.0, SVG Export Plug-In . SVG Version: 6.00 Build 0)  -->
<svg xmlns="http://www.w3.org/2000/svg" xmlns:xlink="http://www.w3.org/1999/xlink" version="1.1" id="Layer_1" x="0px" y="0px" width="273.7797546px" height="40px" viewBox="0 0 273.7797546 40" style="enable-background:new 0 0 273.7797546 40;" xml:space="preserve">
<style type="text/css">
	.st0{fill:#465855;}
	.st1{fill:#3D957D;}
</style>
<g>
	<path class="st0" d="M67.1902695,1.297917l-0.3675842,2.0297313c1.9657974,1.2632461,4.8274384,3.393075,7.7036209,6.5639372   c4.2995453,4.7366829,9.3419495,12.702384,9.9935684,24.3998528l2.5121384,0.9029312l-0.2730789-1.5873985l-0.2458649-1.4380913   l2.5140076,0.429657C83.1108627,14.9358311,68.9996719,2.8014352,67.1902695,1.297917"></path>
	<path class="st0" d="M92.5620422,26.676918C89.132576,22.6139145,72.378212,2.5812945,70.5106888,0.3495037l-0.7355804,2.0023301   c4.3306732,4.0011182,13.9838715,13.9564762,19.2192001,27.4469452l2.5847931-0.0108109l-0.8027878-1.394474l-0.7227249-1.2632446   L92.5620422,26.676918z"></path>
	<path class="st0" d="M64.075676,2.8014352l-0.0091324,2.1389625c3.2875748,1.4999771,8.7922134,4.7948184,12.4292831,11.1185055   c1.268837,2.1989841,2.1333694,4.8203545,2.5702972,7.7947712c0.3459625,2.3628311,0.4259338,4.95121,0.2348709,7.6944885   c-0.1439056,2.0515385-0.4132538,3.8663502-0.6717987,5.2699566l2.2955475,1.9240417l0.2894821-1.5909424l0.2620773-1.4434967   l2.1917114,1.2595177c0.0363541-12.8552113-5.2971649-21.4615784-9.7970963-26.4275131   C69.4893494,5.7048326,65.0367661,3.291091,64.075676,2.8014352"></path>
	<path class="st0" d="M61.2651482,4.8348947l0.2749062,1.5982103c8.6028214,2.1315064,15.0213852,10.202898,15.0213852,19.8087502   c0,4.4162369-1.3581238,8.50457-3.6588821,11.8448944L73.9965515,40l0.0018616-0.003727V40l0.8136444-1.4052849   l0.7372208-1.2669754l1.601944,1.9113693c0.5332947-2.0752144,3.3748474-14.3333817-1.4526367-22.7214699   C70.8746948,8.1351414,62.6650276,5.2699566,61.2651482,4.8348947"></path>
	<path class="st0" d="M91.6555328,17.6390324l0.0473404-8.2460508c-0.3530426,0.0691557-0.7318115-0.027401-1.0029907-0.3004799   c-0.4313736-0.4277925-0.4278259-1.1340694,0.0090942-1.5708089c0.2712173-0.2730789,0.6516647-0.375041,1.0012054-0.3077497   l0.0290451-5.0733027L86.653244,2.1699054c0.0618896,0.3457532-0.0417557,0.7170885-0.3094254,0.9866257   c-0.4369278,0.4367397-1.139473,0.4404678-1.5709991,0.0089474c-0.2674866-0.267487-0.3694458-0.6387997-0.300293-0.9847617   l-8.2078323,0.0438044C78.6329269,6.0233936,83.6387558,12.7787876,91.6555328,17.6390324"></path>
	<path class="st0" d="M58.707489,6.9572673l0.6443901,1.7748971c7.7584267,0.3659296,13.9583397,6.9481564,13.9583397,14.990448   c0,5.2606583-2.6539917,9.8916302-6.6586533,12.5748844l0.4294739,2.5156822l1.2414322-1.0412407l1.1268005-0.9465523   l1.0175705,2.8359222c3.2001495-3.4913101,5.1480484-8.2169724,5.169899-13.4194527   C75.6784592,16.6852131,68.7648087,7.647141,58.707489,6.9572673"></path>
	<path class="st0" d="M63.8954277,36.7452354c4.9805107-2.1169662,8.4937782-7.1557865,8.4937782-13.0226231   c0-7.3287449-5.954422-14.9486713-15.751339-13.9765854l1.0757256,1.8712902   c2.7814903-0.1310406,5.4755592,0.4805441,7.7437363,1.7803249c2.8215256,1.619997,4.6508789,4.1103287,5.1515503,7.0118828   c0.4950867,2.905262-0.3968506,5.8615971-2.5194092,8.3299313c-1.6929016,1.9659824-4.0082016,3.4331512-6.6478386,4.2376633   l-0.4259262,2.3555603l1.5182419-0.5606956l1.3762474-0.5060806L63.8954277,36.7452354z"></path>
	<path class="st0" d="M59.6394997,27.0392838c1.9259033-0.3276939,3.6279411-1.2470284,4.7912788-2.5831585   c1.143013-1.3087273,1.6272888-2.8633213,1.3668823-4.3778362c-0.4714127-2.7524109-3.2929382-4.6417818-6.6131706-4.6417818   c-0.4950829,0-1.0048904,0.0398893-1.5145149,0.1272898c-1.1359329,0.1948128-2.1715813,0.5935268-3.0581093,1.1359558   l1.5872116,1.3307247c0.1767464-0.0456696,0.3567734-0.0874233,0.5442924-0.1202297   c1.2214928-0.2093296,2.4338531-0.0728836,3.4113426,0.3841743c1.0358772,0.4859505,1.694767,1.268652,1.8548889,2.2079315   c0.3204231,1.8731537-1.519886,3.7463074-4.1012192,4.1996365c-0.5060806,0.0872364-1.183094,0.0909634-1.183094,0.0909634   l-1.5510483,1.8422108C56.5305405,27.1630554,58.0776749,27.3086357,59.6394997,27.0392838"></path>
	<path class="st0" d="M54.3788605,23.1947441c0.7918358,0.5715084,2.038681,0.8263187,3.3729439,0.597044   c2.0843468-0.3532314,3.5843239-1.7620564,3.3494568-3.1347218c-0.1073647-0.6298523-0.5843697-1.1739597-1.3379898-1.5271912   c-0.5569725-0.2604027-1.2121353-0.3931217-1.9039116-0.3931217c-0.3168831,0-0.6371231,0.027216-0.9594116,0.081831   c-1.0958557,0.1893845-2.026001,0.6699276-2.6340446,1.2779713l2.257328,1.296032L54.3788605,23.1947441z"></path>
	<path class="st0" d="M67.3904648,28.1368198c1.9406281-2.2552776,2.7561417-4.9420757,2.3082199-7.5707169   c-0.4514694-2.6267776-2.120697-4.8893242-4.7001266-6.3674917c-1.9259071-1.1031265-4.1830482-1.6746349-6.5386124-1.6746349   c-1.5145149,0-3.3365936,0.4149303-3.3365936,0.4149303l1.5836716,1.8876925   c0.2639427-0.0656128,0.5332947-0.1237707,0.8063736-0.1729803c4.4415855-0.7608929,8.5646515,1.6019392,9.1928253,5.2680922   c0.3094254,1.7911377-0.2550354,3.6188087-1.5801697,5.1405945c-1.3051834,1.4962482-3.212822,2.4392548-5.3318405,2.8869934   c-1.0867233,0.2313251-2.1697197,0.1312275-2.1697197,0.1312275l-1.0995445,1.8930969l1.612896-0.0091324l1.4634438-0.0054054   l-0.9901695,2.6795292c0.2365456-0.0292664,0.4751396-0.0619087,0.7117233-0.10569   C62.5648918,31.9796829,65.428215,30.41782,67.3904648,28.1368198"></path>
	<path class="st0" d="M94.0164948,23.1692066l-1.2322998-1.0302448l-1.1141281-0.9357376l2.1989822-1.2742424   C81.1832809,13.4632559,74.9212952,1.9441726,73.9328003,0l-1.0285645,1.7730556   C77.0492554,6.727993,87.0428238,18.6711178,91.5737,24.0702744L94.0164948,23.1692066z"></path>
</g>
<g>
	<path class="st1" d="M5.5538468,25.5557117l3.8991561-10.4323606h1.6511488L5.5538468,29.6203709L0,15.1233511h1.6511487   L5.5538468,25.5557117z"></path>
	<path class="st1" d="M25.2971706,21.9823856c0,3.9355049-3.2292271,7.0555-7.1302471,7.0555s-7.130249-3.1199951-7.130249-7.0555   c0-3.9209671,3.229228-7.0957651,7.130249-7.0957651S25.2971706,18.0614185,25.2971706,21.9823856z M12.5621881,21.9622536   c0,3.0855122,2.503006,5.6612148,5.6047354,5.6612148c3.103817,0,5.6065979-2.5757027,5.6065979-5.6612148   c0-3.1017284-2.4683342-5.6593494-5.6065979-5.6593494S12.5621881,18.8605251,12.5621881,21.9622536z M14.990447,12.7277136   c0.4186583-0.726222,0.9465494-1.4343853,1.8532457-1.4343853c0.5424309,0,1.0320702,0.2002172,1.4671326,0.4186802   c0.4550076,0.2001743,0.8373184,0.4186592,1.1612835,0.4186592c0.5096245,0,0.8009701-0.4732742,1.0176067-0.8701239   l0.8518581,0.6881952c-0.3258686,0.7972412-1.0356884,1.4671707-1.9222164,1.4671707   c-0.4369259,0-0.9083366-0.1985188-1.3635292-0.4151402c-0.4512806-0.2001734-0.8882065-0.4003687-1.268652-0.4003687   c-0.507946,0-0.7263718,0.4367399-0.9064732,0.835453L14.990447,12.7277136z"></path>
	<path class="st1" d="M29.1053638,28.801342h-1.5217857V15.1233511h1.9767933c2.5939713,0,5.006012,0.6880102,5.006012,3.7753859   c0,2.1024055-1.3234558,3.5897293-3.4258823,3.7716579l4.3506222,6.1309471h-1.8677483l-4.1357002-6.0034485h-0.3823109V28.801342z    M29.1053638,21.4561729h0.4733124c1.7219429,0,3.4659214-0.3275089,3.4659214-2.4519329   c0-2.2480068-1.6530132-2.4664707-3.4842262-2.4664707h-0.4550076V21.4561729z"></path>
	<path class="st1" d="M38.9022789,23.2711678c0,1.0119762-0.0363503,2.175312,0.5989113,3.0471134   c0.5989075,0.8337765,1.7603798,1.3051872,2.7578163,1.3051872c0.9793549,0,2.049675-0.4531441,2.6867981-1.2140369   c0.7245445-0.8719883,0.6699295-2.0679646,0.6699295-3.1382637v-8.1478167h1.5255127V23.6861   c0,1.4891644-0.1092339,2.6687164-1.2015495,3.7917881c-0.9392776,1.0175686-2.3007202,1.5599976-3.6806908,1.5599976   c-1.288784,0-2.6139145-0.4896774-3.5386543-1.3942871c-1.1978226-1.1450672-1.3415375-2.3956375-1.3415375-3.9574986v-8.5627489   h1.5234642V23.2711678z"></path>
</g>
<g>
	<g>
		<path class="st1" d="M108.1987076,15.1488886h2.0515366l-6.2017822,6.3656282l6.6405716,7.3121758h-2.1042938l-5.606781-6.2763405    l-0.3821259,0.3821239v5.8942165h-1.5236511v-13.677804h1.5236511v5.8595457L108.1987076,15.1488886z"></path>
		<path class="st1" d="M113.4703369,28.8266926h-1.525322v-13.677804h1.9768295    c2.5976562,0,5.0095139,0.6880093,5.0095139,3.7735224c0,2.1024265-1.3251343,3.5914059-3.4294281,3.7735214l4.3541641,6.1307602    h-1.8694229l-4.1358871-6.0034485h-0.3804474V28.8266926z M113.4703369,21.479845h0.4715958    c1.7219849,0,3.4640961-0.3275089,3.4640961-2.4500675c0-2.2481937-1.6511459-2.4666576-3.4841843-2.4666576h-0.4515076V21.479845    z"></path>
		<path class="st1" d="M122.6521301,15.1488886h7.0939026v1.4142313h-5.5683517v4.0648689h5.4063644v1.4125538h-5.4063644v5.3719177    h5.5683517v1.4142323h-7.0939026V15.1488886z"></path>
		<path class="st1" d="M134.2694855,23.2929764c0,1.0157051-0.0363922,2.1771755,0.6007385,3.0489788    c0.5970459,0.83564,1.7566528,1.3051853,2.7559509,1.3051853c0.9793549,0,2.0496674-0.4514656,2.6867981-1.2123795    c0.7245331-0.8736439,0.6699219-2.0714645,0.6699219-3.1417847v-8.1440878h1.5236969v8.562747    c0,1.4889793-0.1092834,2.6685314-1.1978607,3.79179c-0.9428253,1.0157032-2.3063507,1.5599976-3.6825562,1.5599976    c-1.2887878,0-2.6139221-0.4896774-3.5386658-1.3980141c-1.1978149-1.1413403-1.343399-2.3956604-1.343399-3.9537735v-8.562747    h1.5253754V23.2929764z"></path>
		<path class="st1" d="M149.0578308,28.8266926h-1.5217896V16.5631199h-3.3019257v-1.4142313h8.1623688v1.4142313h-3.3386536    V28.8266926z"></path>
		<path class="st1" d="M162.6303253,27.4124603v1.4142323h-9.7987823l7.4577942-12.2635727h-6.5131073v-1.4142313h9.0507355    l-7.4743347,12.2635717H162.6303253z"></path>
		<path class="st1" d="M168.4663849,25.3972683l4.4270325-10.9583845l4.4270477,10.9583845l3.593277-10.2483797h1.6509552    l-5.2442322,14.3842669l-4.4270477-11.0113239l-4.4270325,11.0113239l-5.242569-14.3842669h1.6528778L168.4663849,25.3972683z"></path>
		<path class="st1" d="M184.8384857,24.9439392l-1.6493378,3.8827534h-1.66922l6.3128662-14.3313293l6.1490326,14.3313293    h-1.6856384l-1.6146088-3.8827534H184.8384857z M187.7945862,18.0503998l-2.3391113,5.4791222h4.6255188L187.7945862,18.0503998z"></path>
		<path class="st1" d="M197.2147827,27.4124603h4.4361725v1.4142323h-5.9598236v-13.677804h1.5236511V27.4124603z"></path>
		<path class="st1" d="M203.3766785,15.1488886h2.5775604c2.0496826,0,3.717041,0.2712145,5.3316498,1.6490984    c1.5599976,1.343399,2.2664642,3.174612,2.2664642,5.2080708c0,1.99506-0.7245483,3.7552547-2.2298889,5.0986538    c-1.6328735,1.4490891-3.2657623,1.721981-5.4082947,1.721981h-2.5374908V15.1488886z M206.0069885,27.4124603    c1.6692352,0,3.0672455-0.2348652,4.3159485-1.4144173c1.1268005-1.0541039,1.7057648-2.4866028,1.7057648-4.010252    c0-1.5599995-0.5953674-3.0653801-1.7767792-4.1012173c-1.2541199-1.10499-2.6303253-1.3234539-4.2449341-1.3234539h-1.1049957    v10.8493404H206.0069885z"></path>
		<path class="st1" d="M217.4588318,28.8266926h-1.5255585v-13.677804h1.5255585V28.8266926z"></path>
	</g>
	<g>
		<path class="st1" d="M233.2336121,15.1160822h2.0498657l-6.2001038,6.3674917l6.640564,7.3104992h-2.1061554l-5.6047363-6.2765274    l-0.3822632,0.378582v5.8979454h-1.5236969V15.1160822h1.5236969v5.8578672L233.2336121,15.1160822z"></path>
		<path class="st1" d="M249.6804199,21.9751148c0,3.9355049-3.2275543,7.0555019-7.130249,7.0555019    c-3.8991547,0-7.1283875-3.119997-7.1283875-7.0555019c0-3.9192867,3.2292328-7.0957632,7.1283875-7.0957632    C246.4528656,14.8793516,249.6804199,18.0558281,249.6804199,21.9751148z M236.943573,21.9568481    c0,3.0836258,2.506546,5.6576729,5.6065979,5.6576729c3.1035919,0,5.6065979-2.5740471,5.6065979-5.6576729    c0-3.1019154-2.4664764-5.6612148-5.6065979-5.6612148C239.4118958,16.2956333,236.943573,18.8549328,236.943573,21.9568481z"></path>
		<path class="st1" d="M265.537262,21.9751148c0,3.9355049-3.2292175,7.0555019-7.1319275,7.0555019    c-3.8991089,0-7.130249-3.119997-7.130249-7.0555019c0-3.9192867,3.2311401-7.0957632,7.130249-7.0957632    C262.3080444,14.8793516,265.537262,18.0558281,265.537262,21.9751148z M252.800415,21.9568481    c0,3.0836258,2.503006,5.6576729,5.6049194,5.6576729c3.1035767,0,5.6065979-2.5740471,5.6065979-5.6576729    c0-3.1019154-2.4666748-5.6612148-5.6065979-5.6612148C255.2687378,16.2956333,252.800415,18.8549328,252.800415,21.9568481z"></path>
		<path class="st1" d="M269.345459,27.3815174h4.4342957v1.4125557h-5.9560852V15.1160822h1.5217896V27.3815174z"></path>
	</g>
</g>
<g>
</g>
<g>
</g>
<g>
</g>
<g>
</g>
<g>
</g>
<g>
</g>
</svg>
